<?xml version="1.0" encoding="UTF-8" standalone="no"?>
<!DOCTYPE svg PUBLIC "-//W3C//DTD SVG 1.1//EN" "http://www.w3.org/Graphics/SVG/1.1/DTD/svg11.dtd">
<svg width="100%" height="100%" viewBox="0 0 65 49" version="1.1" xmlns="http://www.w3.org/2000/svg" xmlns:xlink="http://www.w3.org/1999/xlink" xml:space="preserve" xmlns:serif="http://www.serif.com/" style="fill-rule:evenodd;clip-rule:evenodd;stroke-linejoin:round;stroke-miterlimit:2;">
    <g transform="matrix(1,0,0,1,-51.1018,-58.0074)">
        <g transform="matrix(1.6202,0,0,1.6202,51.0622,51.2691)">
            <g transform="matrix(1,0,0,1,31.2712,13.8944)">
                <path d="M0,6.239C0,7.004 -0.08,7.748 -0.233,8.468C-0.398,9.256 -0.651,10.012 -0.983,10.726C-3.569,10.272 -7.493,9.15 -11.791,7.571C-15.524,6.2 -18.82,4.747 -21.105,3.52C-20.871,2.626 -20.525,1.777 -20.082,0.991C-19.694,0.299 -19.23,-0.347 -18.702,-0.933C-16.738,-3.115 -13.893,-4.487 -10.726,-4.487C-4.875,-4.487 -0.118,0.2 -0.003,6.022C0,6.094 0,6.166 0,6.239" style="fill:rgb(235,86,89);fill-rule:nonzero;"/>
            </g>
        </g>
        <g transform="matrix(1.6202,0,0,1.6202,51.0622,51.2691)">
            <g transform="matrix(1,0,0,1,30.2884,23.655)">
                <path d="M0,0.965C-0.339,1.704 -0.76,2.396 -1.252,3.031C-3.213,5.571 -6.286,7.205 -9.744,7.205C-15.667,7.205 -20.47,2.403 -20.47,-3.522C-20.47,-3.661 -20.467,-3.802 -20.461,-3.94C-20.432,-4.733 -20.316,-5.502 -20.123,-6.24C-17.837,-5.013 -14.541,-3.561 -10.808,-2.19C-6.51,-0.611 -2.586,0.511 0,0.965" style="fill:rgb(235,86,89);fill-rule:nonzero;"/>
            </g>
        </g>
        <g transform="matrix(1.6202,0,0,1.6202,51.0622,51.2691)">
            <clipPath id="_clip1">
                <path d="M9.806,20.134C9.806,26.057 14.609,30.86 20.533,30.86C26.457,30.86 31.26,26.057 31.26,20.134C31.26,14.21 26.457,9.407 20.533,9.407C14.609,9.407 9.806,14.21 9.806,20.134Z" clip-rule="nonzero"/>
            </clipPath>
            <g clip-path="url(#_clip1)">
                <g opacity="0.47">
                    <g transform="matrix(1,0,0,1,22.5829,32.5845)">
                        <path d="M0,-26.66C2.013,-26.27 4.038,-25.876 5.956,-25.15C7.041,-24.739 8.087,-24.223 9.073,-23.612C11.293,-22.236 13.349,-20.059 13.33,-17.447C13.326,-16.784 13.172,-16.098 12.759,-15.58C12.154,-14.822 11.105,-14.557 10.136,-14.594C7.332,-14.7 5.066,-16.829 3.171,-18.899C2.475,-19.659 1.782,-20.437 0.934,-21.023C0.201,-21.529 -0.628,-21.877 -1.457,-22.201C-3.983,-23.187 -6.584,-23.981 -9.23,-24.574C-9.58,-24.653 -9.947,-24.657 -10.293,-24.561C-11.51,-24.222 -11.405,-23.056 -10.846,-22.399C-10.468,-21.955 -9.927,-21.69 -9.403,-21.433C-2.459,-18.035 4.226,-14.105 10.572,-9.689C10.801,-9.529 10.96,-9.277 10.973,-8.998C11.003,-8.356 10.274,-8.154 9.703,-8.165C7.819,-8.198 6.067,-9.076 4.392,-9.937C-1.774,-13.111 -7.912,-16.338 -14.022,-19.619C-14.806,-19.067 -14.817,-17.838 -14.304,-17.028C-13.791,-16.217 -12.912,-15.725 -12.07,-15.265L6.221,-5.29C6.334,-5.228 6.441,-5.152 6.535,-5.063C7.643,-4.009 6.668,-3.043 5.76,-3.009C5.146,-2.986 4.567,-3.27 4.018,-3.546L-14.633,-12.963C-14.731,-13.013 -14.835,-13.053 -14.944,-13.071C-15.588,-13.173 -15.773,-12.615 -15.763,-12.153C-15.743,-11.134 -15.114,-10.205 -14.312,-9.574C-13.511,-8.944 -12.546,-8.564 -11.6,-8.186C-7.703,-6.628 -3.802,-4.935 -0.513,-2.32C-0.246,-2.109 -0.097,-1.767 -0.158,-1.432C-0.224,-1.068 -0.496,-0.98 -0.755,-0.919C-2.882,-0.42 -5.103,-1.2 -7.028,-2.233C-9.117,-3.354 -11.062,-4.796 -13.369,-5.413C-13.831,-5.537 -14.322,-5.554 -14.783,-5.425C-16.292,-5.001 -16.206,-3.357 -15.44,-2.438C-14.861,-1.743 -13.998,-1.362 -13.167,-1.004C-11.354,-0.224 -9.53,0.561 -7.608,1.01C-3.977,1.858 -0.184,1.472 3.519,1.029C4.956,0.857 6.423,0.668 7.719,0.025C9.214,-0.715 10.359,-1.995 11.465,-3.244C12.392,-4.291 13.327,-5.349 14.01,-6.569C15.51,-9.246 15.672,-12.444 15.77,-15.51C15.801,-16.479 15.827,-17.467 15.551,-18.397C15.231,-19.475 14.53,-20.392 13.842,-21.282C12.812,-22.617 11.753,-23.979 10.335,-24.89C9.296,-25.556 8.11,-25.952 6.928,-26.308C3.914,-27.217 0.836,-27.918 -2.276,-28.404C-3.007,-28.518 -6.791,-28.186 -5.054,-27.25C-4.601,-27.006 -3.514,-27.25 -3.003,-27.206C-1.998,-27.119 -0.99,-26.852 0,-26.66" style="fill:rgb(68,72,90);fill-rule:nonzero;"/>
                    </g>
                </g>
            </g>
        </g>
        <g transform="matrix(1.6202,0,0,1.6202,51.0622,51.2691)">
            <g opacity="0.21">
                <g transform="matrix(1,0,0,1,16.166,20.1334)">
                    <path d="M0,0C0,-4.386 2.015,-8.275 5.123,-10.697C4.873,-10.715 4.622,-10.727 4.367,-10.727C-1.557,-10.727 -6.359,-5.924 -6.359,0C-6.359,5.924 -1.557,10.727 4.367,10.727C4.622,10.727 4.873,10.715 5.123,10.697C2.015,8.275 0,4.386 0,0" style="fill:rgb(59,61,94);fill-rule:nonzero;"/>
                </g>
            </g>
        </g>
        <g transform="matrix(1.6202,0,0,1.6202,51.0622,51.2691)">
            <g transform="matrix(1,0,0,1,31.1731,20.9803)">
                <path d="M0,0.581C-0.028,0.803 -0.065,1.022 -0.109,1.239L-0.135,1.371C-0.177,1.57 -0.224,1.768 -0.277,1.964C-0.322,2.129 -0.371,2.292 -0.424,2.453C-0.464,2.576 -0.506,2.698 -0.55,2.819C-0.559,2.844 -0.569,2.87 -0.58,2.894C0.098,3.414 0.429,3.843 0.324,4.134C0.166,4.574 -0.963,4.624 -2.711,4.348C-3.94,4.155 -5.474,3.803 -7.196,3.313C-7.204,3.311 -7.213,3.308 -7.222,3.306C-8.639,2.901 -10.178,2.406 -11.777,1.83C-15.321,0.551 -18.398,-0.846 -20.352,-2.005C-20.356,-2.007 -20.359,-2.009 -20.363,-2.012C-20.364,-2.012 -20.368,-2.014 -20.37,-2.016C-21.888,-2.918 -22.723,-3.674 -22.566,-4.114C-22.446,-4.443 -21.786,-4.553 -20.73,-4.473C-20.73,-4.475 -20.729,-4.478 -20.727,-4.48C-20.706,-4.541 -20.683,-4.602 -20.66,-4.664C-20.616,-4.781 -20.569,-4.897 -20.52,-5.01C-20.473,-5.128 -20.422,-5.242 -20.368,-5.355C-20.364,-5.366 -20.361,-5.375 -20.354,-5.383C-20.294,-5.515 -20.231,-5.643 -20.165,-5.77C-20.107,-5.884 -20.047,-5.996 -19.984,-6.107C-19.899,-6.261 -19.809,-6.411 -19.715,-6.56C-21,-6.888 -22.212,-7.161 -23.333,-7.38L-23.334,-7.38C-25.224,-7.749 -26.851,-7.961 -28.124,-8C-29.822,-8.052 -30.891,-7.795 -31.108,-7.192C-31.619,-5.77 -27.271,-2.822 -20.578,0.215C-18.123,1.331 -15.351,2.458 -12.388,3.526C-9.425,4.595 -6.57,5.493 -3.968,6.202C3.124,8.13 8.355,8.633 8.866,7.213C9.334,5.913 5.739,3.336 0,0.581" style="fill:rgb(235,86,89);fill-rule:nonzero;"/>
            </g>
        </g>
        <g transform="matrix(1.6202,0,0,1.6202,51.0622,51.2691)">
            <g opacity="0.44">
                <g transform="matrix(1,0,0,1,31.0645,20.2048)">
                    <path d="M0,2.015L-0.026,2.146C-0.068,2.346 -0.116,2.544 -0.168,2.74C2.716,4.279 4.399,5.6 4.145,6.297C3.853,7.1 1.031,6.881 -3.044,5.889C-5.598,5.263 -8.647,4.334 -11.875,3.16C-15.102,1.987 -18.037,0.742 -20.398,-0.423C-24.159,-2.275 -26.462,-3.918 -26.169,-4.723C-26.105,-4.899 -25.921,-5.026 -25.632,-5.105L-25.63,-5.105C-24.739,-5.357 -22.839,-5.17 -20.315,-4.624C-20.293,-4.618 -20.268,-4.613 -20.245,-4.608C-20.186,-4.739 -20.123,-4.867 -20.056,-4.995C-20.422,-5.081 -20.779,-5.161 -21.128,-5.235C-23.48,-5.739 -25.425,-6.007 -26.767,-6.004C-27.912,-6 -28.618,-5.8 -28.763,-5.384C-29.132,-4.315 -25.756,-2.1 -20.459,0.281C-17.993,1.39 -15.111,2.535 -11.995,3.617C-8.88,4.7 -5.91,5.589 -3.287,6.248C2.345,7.666 6.369,8.022 6.74,6.955C7.071,5.997 4.385,4.113 0,2.015" style="fill:rgb(59,61,94);fill-rule:nonzero;"/>
                </g>
            </g>
        </g>
        <g transform="matrix(1.6202,0,0,1.6202,51.0622,51.2691)">
            <g transform="matrix(1,0,0,1,30.7493,18.6423)">
                <path d="M0,4.791C-0.04,4.914 -0.082,5.036 -0.126,5.157C1.005,5.885 1.599,6.477 1.467,6.829C1.294,7.3 -0.147,7.257 -2.35,6.805C-3.607,6.547 -5.112,6.157 -6.772,5.651C-6.781,5.649 -6.789,5.646 -6.798,5.644C-8.22,5.211 -9.756,4.696 -11.346,4.11C-14.796,2.84 -17.836,1.483 -19.928,0.333C-19.932,0.331 -19.935,0.329 -19.939,0.326C-19.941,0.326 -19.944,0.324 -19.946,0.322C-21.655,-0.618 -22.727,-1.42 -22.863,-1.925C-22.884,-2.002 -22.884,-2.072 -22.861,-2.133C-22.721,-2.513 -21.758,-2.559 -20.236,-2.326C-20.193,-2.443 -20.145,-2.559 -20.096,-2.672C-22.319,-3.114 -23.828,-3.173 -24.199,-2.764C-24.231,-2.73 -24.254,-2.692 -24.269,-2.651C-24.497,-2.037 -22.825,-0.795 -20.007,0.66C-17.755,1.823 -14.766,3.124 -11.433,4.353C-8.103,5.579 -4.987,6.526 -2.516,7.103C0.571,7.822 2.65,7.964 2.877,7.348C3.065,6.842 1.965,5.914 0,4.791" style="fill:rgb(235,86,89);fill-rule:nonzero;"/>
            </g>
        </g>
        <g transform="matrix(1.6202,0,0,1.6202,51.0622,51.2691)">
            <g opacity="0.56">
                <g transform="matrix(1,0,0,1,10.8053,14.4818)">
                    <path d="M0,1.143C-0.074,1.304 -0.152,1.488 -0.152,1.488C-0.194,1.587 -0.239,1.692 -0.292,1.835C-0.315,1.896 -0.338,1.957 -0.359,2.019C-1.422,1.936 -2.087,2.048 -2.205,2.378C-2.233,2.458 -2.227,2.551 -2.191,2.651C-2.431,2.521 -2.672,2.383 -2.919,2.236C-3.171,2.089 -3.427,1.931 -3.686,1.768C-3.881,1.646 -4.07,1.523 -4.255,1.397C-4.648,1.14 -5.021,0.877 -5.371,0.618L-5.373,0.618C-5.786,0.311 -6.168,0.008 -6.507,-0.281C-7.026,-0.724 -7.451,-1.139 -7.756,-1.501C-7.758,-1.503 -7.759,-1.507 -7.761,-1.508C-6.492,-1.47 -4.866,-1.258 -2.98,-0.89C-2.975,-0.887 -2.972,-0.885 -2.966,-0.881L-2.965,-0.881C-2.577,-0.805 -2.241,-0.736 -1.97,-0.678C-1.712,-0.623 -1.26,-0.526 -0.717,-0.397C-0.375,-0.316 -0.285,-0.29 -0.001,-0.225C0.061,-0.211 0.208,-0.178 0.406,-0.128C0.51,-0.101 0.596,-0.077 0.653,-0.062C0.333,0.476 0.109,0.906 0,1.143" style="fill:rgb(52,54,79);fill-rule:nonzero;"/>
                </g>
            </g>
        </g>
    </g>
</svg>
